<?xml version="1.0" encoding="UTF-8"?>
<svg id="Layer_2" data-name="Layer 2" xmlns="http://www.w3.org/2000/svg" viewBox="0 0 203.95 260.43">
  <defs>
    <style>
      .cls-1 {
        fill: #1c1e16;
      }

      .cls-1, .cls-2 {
        stroke-width: 0px;
      }

      .cls-2 {
        fill: #fff;
      }
    </style>
  </defs>
  <g id="Layer_1-2" data-name="Layer 1">
    <g>
      <g>
        <path class="cls-2" d="M203.7,237.51c0-1.33,0-2.92,0-4.66,0-3.86,0-8.65,0-12.69.02-6.15-.5-12.05-1.54-17.53-.76-3.98-1.79-8.56-4.55-12.59-2.83-4.16-7.17-6.54-11.9-6.54-3.76,0-7.42,1.55-10.3,4.35-2.13,2.08-3.36,4.52-4.15,6.94-1.85-3.93-4.99-6.91-9.2-8.68-2.07-.87-4.15-1.31-6.19-1.31-3.64,0-6.81,1.38-9.13,3.78-.86-1.49-2.39-2.46-4.57-2.91-2.02-.41-5.56-.61-10.82-.61-1.93,0-3.58.03-4.46.04h-.11c-3.69.06-6.06,2.9-7.33,5.51-.15-.61-.36-1.21-.63-1.77-1.35-2.91-4.24-4.71-7.56-4.71-.43,0-.87.03-1.31.09-2.37.34-4.26,1.68-5.37,3.7-1.48-1.8-3.73-2.93-6.37-3-.09,0-.18,0-.27,0-3.85,0-6.91,2.39-7.88,5.97-.01-.03-.03-.05-.04-.08-2.81-5.39-6.96-6.9-9.95-7.22-.57-.06-1.14-.09-1.7-.09-4.94,0-9.21,2.37-11.93,6.56-.03-.13-.07-.26-.1-.38-.67-2.12-2.37-3.48-5.07-4.02-2.02-.41-5.55-.6-10.81-.6-1.94,0-3.6.03-4.48.04h-.1c-3.52.06-5.84,2.63-7.15,5.12-.15-.4-.33-.78-.53-1.15-1.48-2.71-4.04-4.27-7-4.27-.47,0-.95.04-1.43.12-2.94.48-5.4,3-6.11,6.27-.23,1.08-.34,2.19-.33,3.38.02,1.53.04,3.09.06,4.71-.58-2.26-1.32-4.58-2.48-6.95l-.06-.13-.07-.12c-2.13-3.68-5.65-5.88-9.41-5.88-.71,0-1.42.08-2.1.24-4.12.94-6.84,3.85-8.1,8.65-.8,3.05-.81,6.05-.82,8.96,0,1.1,0,2.14-.05,3.14C-.02,214.05,0,221.5,0,228.08c0,1.11,0,2.18,0,3.22,0,4.9.07,9.08.14,13.5.03,1.96.06,3.94.09,6.03.05,3.53,1.82,6.36,4.87,7.74,1.08.49,2.22.74,3.37.74,4.53,0,8.17-3.83,8.28-8.72.02-1.07.04-2.14.04-3.2.13.41.27.82.41,1.23.97,2.72,2.49,5,4.51,6.75,2.03,1.76,4.43,2.69,6.93,2.69,3.44,0,6.56-1.76,8.57-4.83.17-.26.33-.52.48-.79.44.96,1.06,1.84,1.84,2.62,1.86,1.87,4.46,2.94,7.12,2.94.84,0,1.68-.11,2.49-.32,1.72.57,3.45.85,5.27.85s3.53-.27,5.33-.55l.89-.14c2.78-.43,4.7-2.26,5.11-4.91.18-1.11.27-2.13.3-3.07.33.64.68,1.26,1.04,1.88,1.86,3.13,5.93,6.79,11.24,6.79,2.37,0,4.7-.78,6.71-2.27,2.28-1.67,4.08-3.57,5.41-5.67.07,2.2.89,4.19,2.33,5.65,1.48,1.5,3.51,2.33,5.75,2.34,3.72,0,6.66-2.03,7.87-5.19,1.02,3.56,3.83,5.67,7.64,5.67.25,0,.51,0,.77-.03,2.22-.16,4.15-1.19,5.48-2.79,1.43,1.64,3.39,2.75,5.72,2.76.1,0,.3,0,.59,0,1.02.02,2.91.05,5.09.05,4.77,0,7.99-.14,9.84-.43,1.17-.18,2.18-.61,3-1.25,1.39,1.2,3.21,1.93,5.2,1.93,1.43,0,2.85-.39,4.1-1.13,1.26-.74,2.7-2.04,3.45-4.27,1.15,2.72,3.68,4.54,6.77,4.62.09,0,.26,0,.26,0,2.01,0,3.75-.6,5.08-1.69.81,1.27,1.99,2.27,3.5,2.92,1.01.44,2.07.66,3.13.66h20.24c3.84,0,7.29-3.76,7.63-8.12.08-.97.02-3.32-.08-7.38-.07-2.7-.13-5.49-.13-7.42ZM117.8,216.35c-.04-.06-.09-.12-.13-.19.04-.08.09-.17.13-.26,0,.15,0,.3,0,.44Z"/>
        <path class="cls-2" d="M8.36,138.09c2.28.72,5.42,1.07,9.61,1.07,6.35,0,14.46-.83,21.21-1.65.02,3.63.5,8,2.57,12.5,4,8.68,12.84,14.68,26.25,17.84,9.72,2.29,19.43,2.55,25.88,2.55h1.58c.46,0,1.04,0,1.74.02,1.07.01,2.41.03,3.96.03,0,0,0,0,0,0,41.44,0,53.8-14.34,56.86-26.38,2.24-8.8,2.15-18.52-.26-28.93.59-.17,1.14-.33,1.64-.48,16.05-4.91,27.22-8.7,33.19-11.27h.02l.75-.34.39-.17.03-.02c6.51-3.03,10.21-7.6,10.16-12.58-.03-3.44-1.77-8.27-9.89-11.76-6.7-2.86-19.07-10.96-28.12-16.89-3.29-2.16-6.15-4.03-8.45-5.47.02-.66-.03-1.32-.18-1.97-.75-3.41-3.65-5.9-7.57-6.49-1.99-.3-3.57-.39-5.1-.47-.72-.04-1.45-.08-2.26-.14-.77-3.24-3.55-6.51-8.43-7.17l-.34-.05c-2.62-.35-5.89-.79-13.33-3.27l-.6-.26h-.01c-8.4-3.57-16.55-6.47-24.25-8.62-2.66-.74-5.27-1.32-7.81-1.73-.52-3.35-2.86-6.19-5.89-7.25-.54-2.95-1.43-5.32-3.14-7.06-1.43-1.47-3.27-2.33-5.23-2.48-1.94-4.13-4.92-6.5-8.35-6.5-.11,0-.22,0-.33,0-.31.01-.62.04-.92.1-1.81-1.28-3.87-2.2-5.85-2.59-.73-.14-1.45-.22-2.14-.22-2.02,0-3.83.63-5.23,1.81-1.07.9-2.86,2.98-2.81,6.77.01.95.15,1.96.39,2.97-.11.12-.22.24-.32.36-2.26,2.7-2.91,7.4,1,11.37.41.41.82.8,1.26,1.17-.78.41-1.4.92-1.87,1.44-.44-.08-.87-.14-1.3-.19-.61-.07-1.22-.11-1.79-.11-5.14,0-8,2.92-8.97,5.65-.15.41-.26.84-.33,1.27-1.65.65-3.05,1.57-4.14,2.72-1.82,1.93-2.66,4.4-2.36,6.96.37,3.14,2.58,5.81,5.92,7.14,1.53.61,3.27.93,5.05.93.34,0,.68-.01,1.01-.03.21.22.43.43.67.62,1.46,1.21,3.39,1.88,5.43,1.88.8,0,1.59-.1,2.36-.3,1.4,1.17,3.18,1.8,5.13,1.8.02,0,.04,0,.05,0-2.04,3-5.17,7.22-9.98,13.12l-.1.12c-3.52,4.14-8.24,7.2-12.04,9.67-2.79,1.81-5,3.25-6.57,4.93-2.09,2.24-2.99,4.44-3.29,6.33-1.44.8-3,1.71-4.26,2.57-3.23,2.18-4.62,6.35-3.3,9.93.03.07.05.14.08.21l-.11.12c-4.76,5.24-6.48,7.15-7.14,8.01-6.9,8.94-9.42,15.97-7.69,21.49.78,2.48,2.77,5.77,7.83,7.37Z"/>
      </g>
      <g>
        <path class="cls-1" d="M12.49,206.59c-.48,6.66-.12,13.04-.06,19.66.08,8.11.53,16.14.34,24.25-.08,3.54-3.11,5.75-6.01,4.43-1.78-.81-2.51-2.36-2.53-4.16-.09-6.72-.23-12.42-.23-19.48s-.08-15.99.29-23.93c.17-3.71-.21-7.65.74-11.27.72-2.75,2.07-5.07,5.13-5.77,2.68-.62,5.51.88,7.17,3.75,1.81,3.72,2.52,7.45,3.32,11.13,1.51,6.88,2.83,12.72,4.25,20.06s3.02,15.8,3.14,15.79c0-2.33.1-4.66-.03-6.98-.13-2.34-.13-4.69-.19-7.03-.16-6.78-.22-13.57-.33-20.35-.06-4.06-.12-8.12-.17-12.18,0-.84.06-1.67.24-2.5.36-1.67,1.51-2.96,2.85-3.17,1.86-.3,3.37.44,4.29,2.13.53.98.72,2.04.73,3.15,0,2.64,0,5.28.03,7.92.07,6.2.12,11.85.28,18.59.27,7.45.18,14.91.2,22.36,0,1.6-.28,3.17-.64,4.72-.27,1.19-.74,2.31-1.41,3.34-2.27,3.46-6.41,4.03-9.55,1.31-1.59-1.38-2.67-3.1-3.37-5.07-1.68-4.72-2.24-9.7-3.22-14.58-1.61-8.1-5.17-25.46-5.27-26.11ZM115.78,193.04c-.02-.88-.2-1.73-.57-2.53-.8-1.72-2.63-2.64-4.69-2.35-1.64.23-2.71,1.42-2.96,3.38-.09.7-.13,1.41-.09,2.11.21,3.1.53,6.2.46,9.32-.05,2.41-.21,4.81-.96,7.13-.23.71-.51,1.45-1.54,1.29-1.57-.25-2.73-1.46-2.78-3.04-.06-1.78-.09-3.57-.11-5.35-.03-3.32.02-6.63-.09-9.95-.08-2.41-1.91-4.07-4.33-4.13-2.41-.07-4.1,1.4-4.33,3.89-.34,3.59-.4,7.2-.4,10.81,0,2.75.65,5.43.74,8.17.13,4.27.15,8.54.26,12.81.23,8.54.17,17.08.07,25.62-.03,2.64,1.68,4.4,4.08,4.4,2.63,0,4.39-1.69,4.5-4.34.05-1.2.14-2.4.11-3.6-.17-7.55.17-15.09-.17-22.64-.02-.33-.01-.66-.01-1,0-.37.19-.6.52-.77,2.12-1.09,3.8-.51,4.68,1.67.31.77.58,1.56.79,2.36.67,2.54.87,5.16.99,7.76.24,4.93.16,9.86.06,14.8-.02,1.04-.05,2.08.17,3.1.49,2.25,1.97,3.3,4.39,3.13,2.03-.14,3.44-1.66,3.65-3.76.15-1.53.13-3.06.13-4.6.02-6.87.39-13.77-.99-20.57-.67-3.32-1.65-6.53-4.08-9.08-.45-.47-.37-.82-.02-1.29.93-1.25,1.53-2.65,1.96-4.15,1.19-4.15,1.01-8.38.78-12.61-.06-1.99-.13-3.98-.19-5.97ZM160.86,246.71c-.12,1.36-.29,2.72-.23,4.07.1,2.25,1.57,3.71,3.54,3.76,2.28.06,3.78-1.15,4.04-3.51.92-8.3,1.21-16.63.7-24.97-.18-2.88-.53-5.83-1.99-8.38-.76-1.32-1.68-2.77-.74-3.52,1.2-.96,2.8-3.64,3.07-4.5,1.15-3.7.35-7.36-.85-11.25-1.25-4.06-3.92-6.97-7.89-8.64-6.55-2.75-12.41.35-13.6,7.25-.51,2.93-.61,5.91-.67,8.88-.04,1.73-.1,3.46-.13,5.19-.07,4.5-.2,9-.18,13.49.02,4.75.09,9.49-.06,14.24-.13,4.21-.18,8.43-.06,12.64.09,3.1,3.4,4.81,6.01,3.27,1.55-.91,1.96-2.42,1.99-4.05.11-5.94.3-11.89.21-17.83-.06-3.76-.07-7.51-.1-11.27,0-.57.07-1.15.14-1.72.04-.34.19-.61.56-.74,2.56-.94,5.07.32,5.77,2.9,1.03,3.76,1.03,7.59.94,10.95-.03,4.91-.1,9.32-.48,13.73ZM154.8,211.24c-.61-.03-.68-.38-.67-.82.08-4.16.19-8.33.8-12.46.2-1.35,1.04-1.8,2.36-1.45,2.24.59,3.32,2.26,3.92,4.29.38,1.27.58,2.58.59,3.43,0,4.41-3.03,7.22-7.01,7.01ZM180.48,218.16c-.02-1.08.4-1.41,1.44-1.39,3.05.06,6.1.06,9.15.05.79,0,1.17.23,1.19,1.09.13,5.41.19,9.84.19,16.1s.14,11.71.18,17.83c-.06,2.4,1.49,4.05,3.54,4.12,1.95.07,3.59-1.63,3.77-3.97.12-1.5-.22-10.13-.22-14.49s-.02-11.54,0-17.37c.02-5.61-.42-11.23-1.47-16.77-.74-3.89-1.64-7.75-3.92-11.09-3.91-5.73-11.16-6.41-16.12-1.58-2.41,2.35-3.31,5.36-3.95,8.5-1.14,5.62-1.31,11.34-1.5,17.03-.21,6.52-.26,13.05-.29,19.57-.03,5.41-.15,10.82-.31,16.22-.05,1.81.57,3.32,2.34,4.08,2.6,1.12,5.2-.71,5.43-3.83.18-2.44.19-4.89.24-7.33.13-6.44.38-24.3.32-26.79ZM181.69,209.11c-.61-.05-.74-.68-.66-1.38.42-3.5.77-8.24,2.29-10.93,1.05-1.86,3.85-1.95,4.97-.32.99,1.44,1.48,3.1,1.88,4.77.49,2.04.87,4.11,1.23,6.18.29,1.64.07,1.86-1.62,1.87-.52,0-1.03,0-1.55,0-2.19.06-4.2,0-6.55-.17ZM75.02,215.83c.23-4.93.49-9.86,1.37-14.73.28-1.52.59-3.04,1.34-4.42.12-.22.22-.52.51-.53.4-.01.42.38.51.64.4,1.22.69,2.47.9,3.75.7,4.14.53,8.31.51,12.47,0,.9.03,1.8.32,2.67,1.05,3.2,5,4.14,7.4,1.77,1.11-1.1,1.36-2.48,1.34-3.91-.03-3.52,0-7.05-.27-10.56-.27-3.55-.77-7.11-2.45-10.34-1.45-2.78-3.61-4.75-6.83-5.09-4.64-.49-8.4,1.67-10.54,5.84-1.25,2.45-1.78,5.11-2.15,7.79-1.41,10.32-1.84,20.69-1.29,31.09.33,6.16,1.62,12,4.84,17.42,2.17,3.64,7.45,6.81,12.16,3.35,2.51-1.84,4.64-4.22,5.71-7.3,1.21-3.5,1.1-7.12.69-10.71-.28-2.45-2.34-3.98-4.71-3.8-2.45.19-4.17,2.03-4.19,4.53,0,.64.11,1.28.13,1.92.05,2.02.06,4.05-.68,5.96-.48,1.24-1.16,1.3-1.92.22-.66-.92-1.01-1.99-1.32-3.06-1.55-5.22-1.61-10.59-1.58-15.96.01-3.01.07-6.01.21-9.02ZM49.48,220.61c0-1.56,1.01-2.06,2.33-2.06s5.09.13,7.57-.04c1.14-.08,2.25-.24,2.39-1.54.1-.91.07-2.18.06-3.03-.02-1.22-.44-2.11-1.88-2.45-1.19-.28-6.81-.53-8.18-.53s-1.99-.93-1.99-2.22.05-6.76.16-9.09c.06-1.31.47-1.86,1.53-1.96,2.01-.19,5.14-.08,6.89-.13,1.73-.05,3.39.06,4.04-1.54.37-.9.53-3.94.15-5.15-.27-.87-1.19-1.13-2.05-1.3-3.37-.68-12.23-.52-14.54-.48-2.57.04-4.11,3.51-4.47,5.01-.63,2.62-.51,12.23-.54,15.24-.07,6.2-.04,12.39-.05,18.59,0,.5,0,18.31,0,20.78-.01,3.64,3.99,6.11,7.48,5.04.59-.18,1.12-.19,1.71.01,3.57,1.28,6.3.68,9.97.11,1.09-.17,1.63-.67,1.78-1.59s.46-3.11.05-4.78c-.19-.79-.66-1.28-1.01-1.35-1.08-.22-2.6-.16-3.98-.16s-4.56,0-5.94,0-1.92-.47-1.92-1.87.45-10.58.43-15.48c0-2.68.02-5.36.02-8.04ZM130.37,221c0-1.58,1.01-2.09,2.33-2.09s5.09.13,7.57-.04c1.14-.08,2.25-.24,2.39-1.56.1-.92.07-2.21.06-3.07-.02-1.24-.44-2.14-1.88-2.48-1.19-.28-5.43-.54-6.81-.54-.73,0-.2-2.3-1.12-2.99s-2.24-.3-2.24-.91c0-1.31.04-5.2.15-7.55.06-1.32.47-1.88,1.53-1.98,2.01-.2,5.14-.09,6.89-.14,1.73-.05,3.39.06,4.04-1.56.37-.92.53-3.99.15-5.21-.27-.88-1.19-1.15-2.05-1.32-3.37-.69-12.23-.53-14.54-.49-2.57.04-4.11,3.56-4.47,5.07-.63,2.65-.51,12.39-.54,15.43-.07,6.27-.04,12.55-.05,18.82,0,.51,0,18.54,0,21.04,0,2.65,1.76,5.55,4.27,5.56.97,0,11.21.25,14.89-.33,1.09-.17,1.63-.68,1.78-1.61s.46-3.15.05-4.84c-.19-.8-.66-1.3-1.01-1.37-1.08-.22-2.6-.16-3.98-.16s-4.56,0-5.94,0-1.92-.48-1.92-1.9.45-10.71.43-15.67c0-2.71.02-5.43.02-8.14Z"/>
        <path class="cls-1" d="M192.49,82.2c-7.03-3-19.58-11.22-28.74-17.22-3.39-2.22-6.32-4.14-8.62-5.57-.74-.46-1.48-.92-2.24-1.38.55-.92.74-1.96.52-2.97-.39-1.79-1.99-3.06-4.26-3.4-1.81-.27-3.23-.35-4.73-.44-1.64-.09-3.43-.19-6.1-.57.26-.66.36-1.39.27-2.14-.24-1.99-1.93-4.2-5.18-4.64l-.33-.04c-2.81-.38-6.31-.85-14.23-3.49,0,0,0,0,0,0-8.5-3.65-16.74-6.6-24.5-8.77-3.75-1.04-7.23-1.71-10.45-2.05-.12-.77-.19-1.47-.18-1.97.08-2.65-2.06-5.16-4.48-5.25-.35-.01-.69.02-1.03.11-.41-3.71-1.01-6.43-2.48-7.93-1.11-1.13-2.63-1.56-4.06-1.14-.32.09-.62.22-.91.39-1.18-4.27-3.38-7.16-5.93-7.03-.61.02-1.25.24-1.78.71-1.8-1.79-4.11-2.92-5.92-3.28-1.67-.33-3.07-.08-4.02.73-.65.55-1.42,1.63-1.39,3.66.02,1.37.43,3.05,1.2,4.64-.85.25-1.56.71-2.06,1.31-1.17,1.4-1.39,3.81.78,6.01,1.25,1.27,2.29,2.02,4.18,2.71-.14.22-.25.45-.33.7-.28.86-.32,2.5,2.02,4.2-.34-.09-.69-.18-1.08-.27-4.03-.94-5.38.57-5.83,1.56-.16.36-.25.73-.26,1.12-1.18-.37-2.5-.67-3.92-.84-4.9-.58-6.23,2.08-6.53,2.91-.33.95-.3,1.99.04,2.96-2.29.34-4.19,1.19-5.37,2.44-1.01,1.07-1.46,2.37-1.3,3.76.2,1.69,1.45,3.1,3.43,3.89,1.77.7,4.25.92,6.58.21.26,1.01.84,1.63,1.22,1.94,1.57,1.3,4.21,1.28,6.12-.05.17-.12.33-.23.49-.35.19.86.61,1.41.87,1.68,1.43,1.54,4.05,1.58,6.09.1.19-.14.37-.27.56-.4.11.53.34,1,.69,1.4.26.3.97.9,2.16.99,0,0,0,0,0,.01-1.98,3.91-6.5,10.21-13.43,18.72l-.11.13c-3.9,4.61-8.91,7.87-12.94,10.48-2.57,1.67-4.6,2.98-5.83,4.31-1.82,1.95-2.58,3.97-2.29,6.03-1.51.8-4.12,2.22-5.95,3.46-1.73,1.17-2.48,3.37-1.79,5.23.26.69.74,1.38,1.47,1.88l-2.29,2.52c-4.15,4.57-6.34,6.99-6.94,7.77-5.96,7.72-8.33,13.73-7.04,17.86.72,2.29,2.48,3.89,5.23,4.76,1.98.63,4.89.89,8.4.89,7,0,16.37-1.03,25.37-2.22-.06.83-.11,1.66-.14,2.48-.16,4.39.2,8.63,2.17,12.9,8.6,18.64,42.26,18.07,50.09,18.07s52.19,2.24,58.7-23.32c2.59-10.18,1.58-20.76-1.24-30.77,2.04-.53,3.86-1.03,5.31-1.48,16.6-5.08,27.87-8.92,33.52-11.44,0,0,0,0,0,0,5.24-2.35,8.23-5.66,8.2-9.09-.02-2.25-1.33-5.49-7.47-8.12ZM97.68,116.76c-2.82,3.28-7.88,5.54-12.33,5.54-.04,0-.09,0-.13,0-5.6-.06-10.33-3.02-12.99-8.12-1.18-2.25-1.82-4.7-1.99-7.41,1.86-.77,3.94-1.49,6.14-2.17-.01.43,0,.88.05,1.37.24,2.65,1.37,4.99,3.91,6.3,1.94,1,5.05,1.32,7.21,1.13,2.72-.24,4.66-1.53,5.79-3.41.94-1.56,1.32-3.52,1.13-5.64-.12-1.35-.36-2.79-.94-3.97,2.35-.48,4.5-.89,6.28-1.22.63,1.67.88,3.61.85,6.17-.05,5.25-.54,8.63-2.95,11.42ZM136.58,99.53c-.05,5.25-.54,8.63-2.95,11.42-2.82,3.28-7.88,5.54-12.33,5.54-.04,0-.09,0-.13,0-5.6-.06-10.33-3.02-12.99-8.12-1.43-2.74-2.11-5.73-2.07-9.16,0-.43.04-.81.07-1.22,2.04-.35,4.4-.74,6.91-1.11-.42,1.53-.4,3.24.08,5.01.48,1.76,1.19,3.64,2.57,4.69,2.14,1.63,5.42,1.86,8.33,1.06,2.7-.74,5.1-2.23,6.2-4.48.85-1.74.78-4.07.25-6.02-.2-.72-.49-1.39-.83-2.01,2.34-.11,4.57-.13,6.55-.02.26,1.26.37,2.7.35,4.42h0ZM190.38,96.32c-5.52,2.46-16.66,6.26-33.13,11.29-1.45.44-3.27.94-5.31,1.47-.33-1.02-.67-2.03-1.04-3.04,15.98-4.32,25.88-8.36,25.32-11.38h0s0,0,0,0c-.04-.19-.12-.37-.24-.55-.04-.06-.1-.11-.14-.17-.1-.12-.2-.24-.34-.35-.07-.06-.16-.12-.24-.18-.15-.1-.3-.2-.48-.3-.1-.06-.21-.11-.32-.16-.2-.1-.42-.19-.66-.28-.12-.05-.23-.09-.36-.14-.29-.1-.61-.2-.94-.29-.1-.03-.19-.06-.3-.09-.93-.24-2-.46-3.22-.64-.06,0-.13-.02-.2-.03-.55-.08-1.12-.15-1.72-.22-.12-.01-.25-.03-.37-.04-.57-.06-1.17-.12-1.79-.17-.13-.01-.26-.02-.39-.03-.66-.05-1.35-.1-2.06-.13-.09,0-.18-.01-.27-.01-4.19-.21-9.18-.22-14.81,0-.04,0-.07,0-.11,0-1.12.04-2.27.1-3.44.16-.67.04-1.36.08-2.05.12,0,0,0-.01,0-.01-1.05.06-2.14.15-3.22.22,0,0,0,0,0,0-.25.02-.5.04-.75.06-.75.06-1.5.11-2.26.18-.21.02-.42.03-.64.05,0,0,0,0,0,0-2,.17-4.06.36-6.16.57-.29.03-.56.05-.85.08.22-.02.44-.04.66-.06-.46.05-.94.1-1.41.15,0,0-.01,0-.02-.01-.99.1-2.02.23-3.02.34-.41.05-.83.09-1.24.14-1.42.17-2.86.34-4.31.53-.45.06-.89.11-1.34.17-.81.11-1.59.2-2.41.31,0,0-.01.01-.02.02-2.7.37-5.44.76-8.23,1.21,0,0,0,0,0,0-.47.07-.95.15-1.43.23-.12.02-.23.04-.35.05,0,0,0,0,0,0-.59.09-1.17.19-1.76.29,0,0,0,0,0,0-.87.14-1.74.29-2.62.44-.08.01-.17.03-.25.04,0,0,0,0,0,0-.32.06-.64.12-.96.17-.29.05-.58.1-.88.15,0,0,0,0,0,0-.99.17-1.97.34-2.96.53-1.49.28-2.96.57-4.42.86,0,0,0,0-.01,0-.32.06-.64.13-.96.2-1.18.24-2.34.48-3.5.72-1.07.22-2.13.45-3.18.68-.9.2-1.79.4-2.68.61-.91.21-1.84.41-2.74.62,0,0,0,.01-.01.02-2.55.6-5.06,1.21-7.5,1.84,0,0,0,0,0,0-.29.07-.57.15-.85.22-.04.01-.09.02-.13.03.01,0,.02,0,.04-.01-.27.07-.54.14-.81.21h0s-.08.02-.11.03c0,0,0,.01,0,.01-.54.14-1.08.28-1.61.42,0,0,0,.01,0,.02-.38.1-.75.21-1.12.31-.14-.54-.52-1.01-1.09-1.2-.89-.29-1.84.21-2.13,1.09-.02.07-2.19,6.75-6.15,12.17-1.73,2.37-3.8,3.45-5.53,2.88-1.02-.33-1.7-1.2-1.7-2.16,0-1.34.81-2.81,1.34-3.6.23-.3.36-.49.38-.52.51-.75.34-1.76-.38-2.31-.73-.54-1.75-.42-2.32.28-.05.07-.2.25-.4.54-.73.93-2.65,3.13-5.06,3.96-1.03.36-1.93.06-2.21-.43-.43-.77.29-2.57,2.9-4.7.72-.59.83-1.66.24-2.38-.59-.72-1.65-.83-2.38-.24-2.92,2.38-3.94,4.46-4.18,6.04-.25.1-.51.2-.76.3-.03.01-.07.03-.1.04-1.79.74-3.45,1.47-4.99,2.18-.12.06-.24.11-.36.17-.61.29-1.2.57-1.76.85-.18.09-.35.17-.52.26-.5.25-.97.5-1.43.74-.17.09-.34.18-.51.27-.45.24-.87.48-1.28.72-.14.08-.29.16-.42.24-.48.28-.92.56-1.34.83-.04.03-.1.06-.14.09-.46.31-.89.6-1.28.9-.07.06-.13.11-.2.16-.29.23-.57.45-.82.67-.1.09-.19.18-.29.27-.19.18-.37.35-.52.52-.09.09-.17.19-.24.28-.13.16-.25.32-.35.47-.06.09-.12.18-.16.26-.09.16-.14.31-.19.46-.02.07-.06.14-.07.21-.05.21-.06.42-.02.61.53,2.85,9.98,2.96,24.78,1.34-.18,1.14-.33,2.29-.44,3.43-13.09,1.74-27.67,3.27-33.05,1.56-1.66-.52-2.65-1.36-3.02-2.55-.9-2.88,1.46-8.27,6.49-14.78.55-.71,3.29-3.73,6.77-7.56l4.2-4.63c.47-.52.57-1.28.25-1.91-.29-.57-.88-.92-1.5-.92-.06,0-.13,0-.19.01-.41.04-1.11.05-1.27-.4-.13-.36.02-.93.51-1.26,1.69-1.14,4.19-2.5,5.64-3.27,1.24,1.07,2.84,1.39,4.01,1.39.24,0,.46-.01.66-.04.93-.11,1.59-.95,1.48-1.88-.11-.93-.93-1.59-1.88-1.48-.01,0-1.65.13-2.35-.89-.32-.91-.35-2.08,1.27-3.82.95-1.02,2.92-2.3,5.2-3.78,3.99-2.59,9.46-6.14,13.71-11.17l.13-.16c7.18-8.81,11.7-15.13,13.81-19.31.53-1.05.85-2.01,1.03-2.89,3.45-2.04,6.96-2.74,10.44-2.03.91.18,1.81-.41,1.99-1.32.19-.92-.41-1.81-1.32-1.99-4.41-.9-9,.03-13.26,2.68-.71.44-1.18.59-1.45.65.05-.52.41-1.67,1.81-3.36.59-.72.5-1.77-.21-2.37-.71-.6-1.77-.51-2.37.19-.99,1.15-2.6,2.41-5.07,4.2-.75.54-1.47.5-1.63.33-.2-.21-.16-1.47,1.67-3.66.01-.01.02-.03.04-.04.6-.72.5-1.78-.21-2.38-.72-.6-1.78-.51-2.38.21-.01.01-.02.03-.03.04-.91,1.08-2.45,2.36-4.85,4.03-.73.51-1.72.48-2.04.22-.18-.14-.18-.71.23-1.62.32-.72.1-1.57-.53-2.04-.63-.47-1.5-.45-2.11.06-1.79,1.51-4.58,1.6-6.3.92-.76-.3-1.27-.74-1.32-1.14-.03-.24-.02-.61.4-1.05.77-.82,2.84-1.72,6.14-1.53.76.03,1.47-.44,1.71-1.17.24-.74-.06-1.54-.71-1.95-.86-.54-1.26-1.45-1.08-1.95.17-.48,1.14-.89,2.94-.67,3.11.36,6.1,1.65,7.86,2.72.78.47,1.79.25,2.29-.51.5-.76.32-1.78-.42-2.31-1.21-.87-1.74-1.61-1.94-2.01.31-.03.88-.03,1.83.19,3.24.76,4.54,1.42,6.35,2.33l.61.31c.33.16.69.19,1.03.14-.09,1.05.21,2.98,3.12,4.44,1.97.99,3.86,1.59,5.69,2.17,2.55.81,4.97,1.58,7.53,3.37.3.21.63.31.97.31.53,0,1.06-.25,1.39-.72.54-.77.35-1.82-.42-2.36-2.99-2.09-5.76-2.97-8.45-3.83-1.78-.57-3.46-1.1-5.19-1.97-1.05-.53-1.31-1.03-1.28-1.14.08-.3,1.04-.98,2.88-.91.92.08,1.59-.57,1.73-1.41.14-.84-.37-1.65-1.18-1.9-2.99-.9-7.34-2.33-10.52-4.29-.47-.29-.77-.54-.95-.72.43-.15,1.26-.29,2.59-.2.88.08,1.66-.57,1.79-1.44s-.43-1.7-1.29-1.9c-5.92-1.38-6.59-1.85-8-3.29-.49-.5-.87-1.15-.6-1.47.3-.36,1.26-.52,2.39.24.75.52,1.77.34,2.31-.39.54-.73.41-1.76-.31-2.33-1.59-1.27-2.65-3.79-2.74-5.49-.05-.82.13-1.17.18-1.22.08-.05.55-.18,1.51.07,1.78.47,4.15,2.01,5.21,4.06.36.69,1.13,1.04,1.88.87.75-.18,1.29-.84,1.31-1.61,0-.22.02-.4.04-.54.84.71,2.48,3.12,2.9,7.95.07.84.75,1.49,1.59,1.54.84.04,1.59-.53,1.75-1.35.24-1.19.77-1.74,1.15-1.85.08-.02.34-.1.68.26,1.19,1.21,1.58,5.98,1.97,10.61.07.88.81,1.55,1.68,1.55h.03c.89-.01,1.62-.72,1.66-1.61.06-1.23.38-1.68.44-1.72.01-.01.27.02.58.3.34.3.69.84.67,1.47-.08,2.77,1.43,8.97,3.41,12.53.46.82,1.49,1.11,2.3.65.81-.46,1.11-1.49.65-2.3-.77-1.37-1.49-3.37-2.03-5.32,2.72.36,5.65.96,8.77,1.83,7.65,2.14,15.79,5.05,24.2,8.67.08.03.16.06.25.08,8.15,2.71,11.81,3.21,14.75,3.6l.33.04c1.45.2,2.19.99,2.27,1.68.06.47-.19.87-.66,1.15-1.82-.26-3.12-.5-3.13-.5-.92-.17-1.8.44-1.97,1.36-.17.92.44,1.8,1.36,1.97,0,0,1.6.3,3.77.59,4.73.85,7.34.99,9.64,1.12,1.48.08,2.76.15,4.42.4.92.14,1.4.49,1.46.78.06.27-.17.76-.81,1.19-1.36.89-2.82.75-2.82.75-.93-.12-1.77.54-1.89,1.47-.12.93.54,1.77,1.47,1.89.07,0,.31.04.67.04.76,0,2.05-.14,3.43-.78,1.08.65,2.15,1.3,3.18,1.95,2.27,1.42,5.24,3.36,8.55,5.53,9.79,6.41,21.96,14.39,29.26,17.51,3.48,1.49,5.4,3.28,5.41,5.04.02,1.96-2.36,4.25-6.2,5.97ZM58.83,86.63c-.82,0-1.57-.24-2.22-.72-1.08-.79-1.72-1.9-1.86-3.2-.28-2.6,1.49-6,5.4-10.4.62-.7,1.69-.76,2.39-.14.7.62.76,1.69.14,2.39-4.35,4.89-4.64,7.08-4.56,7.8.04.36.18.6.5.83.04.03.12.09.4.04,2.06-.37,5.9-4.73,8.46-8.63.48-.73,1.43-.97,2.2-.57.77.4,1.11,1.32.78,2.13-.76,1.88-.55,2.91-.24,3.12.33.22,1.62.14,3.3-1.53,3.68-3.64,6.4-9.32,6.43-9.38.4-.84,1.41-1.2,2.25-.8.84.4,1.2,1.41.81,2.25-.12.25-2.99,6.27-7.11,10.33-2.56,2.53-5.53,3.29-7.56,1.94-.29-.19-.81-.62-1.22-1.36-2.14,2.57-4.98,5.36-7.51,5.82-.27.05-.53.07-.78.07ZM142.32,83.31c-.77,0-1.6-.1-2.46-.3-4.81-1.15-8.64-3.45-8.8-3.55-.8-.48-1.05-1.52-.57-2.32.48-.8,1.52-1.06,2.32-.58.03.02,3.57,2.13,7.84,3.15,1.99.48,3.13.04,3.36-.2-.05-.02-.2-.29-.72-.67-.69-.51-.89-1.45-.47-2.2.42-.75,1.34-1.05,2.13-.72,4.06,1.71,7.14.98,7.58.13.16-.31-.24-1.43-2.52-2.87-5.25-3.32-8.21-4.83-8.24-4.84-.83-.42-1.17-1.44-.75-2.27.42-.83,1.44-1.17,2.27-.75.12.06,3.12,1.58,8.53,5.01,5.25,3.32,4.17,6.43,3.71,7.3-1.19,2.28-4.43,3.18-8.19,2.53-.06.35-.17.61-.24.77-.71,1.53-2.51,2.39-4.78,2.39Z"/>
      </g>
    </g>
  </g>
</svg>